<svg width="16" height="16" viewBox="0 0 16 16" fill="none" xmlns="http://www.w3.org/2000/svg">
<path fill-rule="evenodd" clip-rule="evenodd" d="M5.22759 12.9943H0.259913C-0.029849 12.9943 -0.0352579 12.992 0.0427846 12.7103C0.185734 12.1926 0.339501 11.6765 0.480904 11.1588C0.528811 10.9795 0.64008 10.9539 0.79462 10.9547C2.10589 10.9585 3.41793 10.957 4.72997 10.957C6.65862 10.957 8.5865 10.9609 10.5159 10.9516C10.774 10.9453 11.0336 10.9065 11.2886 10.8359C11.6665 10.7474 11.9763 10.4416 12.0698 10.0652C12.154 9.7827 12.2166 9.49554 12.3125 9.21613C12.5443 8.53624 12.3009 8.2972 11.5931 8.20484C11.4231 8.19087 11.2508 8.18854 11.0785 8.1963C8.93499 8.1963 6.78998 8.21027 4.64961 8.18621C4.09404 8.17146 3.54851 8.09851 3.02076 7.96967C2.48065 7.89361 2.06416 7.51175 1.94517 6.98476C1.89649 6.68828 1.90576 6.37861 1.97298 6.07204C2.06493 5.62266 2.22952 5.18104 2.35315 4.73399C2.55328 3.93536 3.18148 3.26944 3.97273 3.01798C4.51052 2.81541 5.06996 2.70985 5.62321 2.70442C8.9999 2.68735 12.3766 2.67415 15.7525 2.66406C16.0137 2.66406 16.0376 2.70054 15.9634 2.95356C15.8128 3.47046 15.659 3.98581 15.5153 4.50348C15.4759 4.64474 15.4063 4.70761 15.2672 4.69829C15.1962 4.69441 15.1235 4.69829 15.0524 4.69829C11.8983 4.69829 8.74413 4.69829 5.58998 4.70062C5.38908 4.70295 5.18741 4.72002 4.9865 4.75185C4.77479 4.76504 4.58779 4.93035 4.54607 5.14146C4.50202 5.31919 4.44253 5.49538 4.38998 5.67156C4.31117 5.84075 4.37839 6.02702 4.53989 6.08678C4.57002 6.09765 4.6017 6.10386 4.63493 6.10541C4.82192 6.13723 5.01278 6.15353 5.20595 6.15508C7.54259 6.15896 9.88155 6.14422 12.2151 6.16983C12.7135 6.18458 13.2011 6.26529 13.6639 6.40965C14.7016 6.71312 15.0007 7.48847 14.7843 8.51451C14.6336 9.18586 14.442 9.85256 14.2102 10.5092C13.8656 11.6571 12.8688 12.5535 11.7005 12.7661C11.1287 12.8981 10.5515 12.971 9.97813 12.9827C8.3941 13.0122 6.81162 12.9935 5.22759 12.9935V12.9943Z" fill="#00FFB5"/>
</svg>
